<?xml version="1.0" standalone="no"?>
<!DOCTYPE svg PUBLIC "-//W3C//DTD SVG 20010904//EN"
 "http://www.w3.org/TR/2001/REC-SVG-20010904/DTD/svg10.dtd">
<svg version="1.0" xmlns="http://www.w3.org/2000/svg"
 width="1024.000000pt" height="1024.000000pt" viewBox="0 0 1024.000000 1024.000000"
 preserveAspectRatio="xMidYMid meet">
<metadata>
Created by potrace 1.16, written by Peter Selinger 2001-2019
</metadata>
<g transform="translate(0.000000,1024.000000) scale(0.100000,-0.100000)"
fill="#000000" stroke="none">
<path d="M3040 9724 c-324 -39 -586 -115 -840 -244 -364 -186 -651 -443 -882
-790 -188 -283 -309 -597 -365 -951 -28 -177 -25 -570 6 -742 92 -521 321
-953 697 -1317 272 -263 575 -449 911 -560 442 -145 910 -159 1365 -38 l117
30 3 259 c3 227 1 258 -12 253 -8 -4 -71 -26 -139 -51 -176 -62 -333 -92 -521
-100 -326 -12 -611 48 -905 191 -1072 524 -1423 1863 -738 2819 72 100 241
278 342 359 288 232 640 378 1013 419 130 15 401 6 528 -16 52 -10 147 -33
210 -52 320 -96 571 -244 808 -477 220 -215 349 -418 471 -738 l10 -27 54 24
c68 31 176 59 295 76 50 7 92 16 92 20 0 4 -18 60 -41 125 -227 658 -784 1194
-1474 1417 -269 88 -405 109 -720 112 -137 2 -266 1 -285 -1z"/>
<path d="M2350 7375 l0 -1365 275 0 275 0 0 484 0 484 358 5 c307 4 370 8 453
25 207 44 348 119 489 261 102 102 157 190 199 319 44 137 47 348 6 507 -18
71 -81 206 -127 273 -100 146 -258 262 -438 321 -143 47 -204 51 -867 51
l-623 0 0 -1365z m1246 863 c127 -38 233 -129 275 -236 35 -87 34 -226 -3
-304 -35 -75 -107 -151 -174 -184 -96 -47 -153 -53 -486 -54 l-308 0 0 401 0
401 323 -5 c250 -3 333 -7 373 -19z"/>
<path d="M5160 4489 c-596 -13 -1065 -29 -1160 -39 -52 -5 -101 -10 -107 -10
-23 0 -14 -18 13 -24 228 -58 2169 -102 3379 -77 1144 23 1729 57 1667 95 -74
46 -2568 82 -3792 55z"/>
<path d="M8217 3975 c-153 -39 -276 -140 -346 -284 -61 -127 -76 -206 -76
-406 0 -148 3 -180 23 -250 34 -116 85 -206 153 -269 103 -95 213 -136 371
-136 152 0 267 43 373 141 l44 40 7 -80 7 -81 98 0 99 0 0 345 0 345 -295 0
-295 0 0 -105 0 -105 165 0 165 0 -6 -27 c-27 -115 -111 -218 -200 -243 -62
-18 -151 -16 -212 4 -150 50 -230 226 -219 481 10 226 82 363 214 411 63 22
170 18 228 -10 60 -27 127 -100 151 -162 l17 -44 135 0 135 0 -7 48 c-7 58
-63 173 -110 228 -46 54 -145 117 -226 145 -84 29 -303 37 -393 14z"/>
<path d="M1200 3311 l0 -661 135 0 135 0 0 240 0 240 148 0 c172 0 257 15 343
61 139 75 208 213 196 399 -11 195 -104 309 -288 356 -49 12 -135 17 -366 21
l-303 5 0 -661z m577 401 c62 -32 87 -74 91 -153 3 -51 0 -74 -16 -105 -43
-84 -90 -103 -259 -104 l-123 0 0 196 0 196 133 -4 c111 -3 139 -8 174 -26z"/>
<path d="M2495 3773 c-37 -109 -139 -404 -226 -657 -88 -252 -159 -460 -159
-462 0 -2 60 -4 133 -4 l133 0 45 140 44 140 227 0 227 0 43 -137 44 -138 141
-3 142 -3 -43 123 c-24 68 -125 365 -226 661 l-183 537 -137 0 -137 0 -68
-197z m276 -363 c27 -91 55 -186 63 -212 l15 -48 -160 0 c-149 0 -159 1 -151
18 9 17 119 373 143 462 l12 45 14 -50 c8 -27 37 -124 64 -215z"/>
<path d="M3440 3311 l0 -661 135 0 135 0 0 255 0 256 111 -3 111 -3 131 -252
132 -253 149 0 c137 0 148 1 142 18 -13 32 -208 386 -249 450 -22 34 -38 64
-36 65 2 1 26 13 52 27 62 32 122 96 155 168 25 52 27 68 27 182 0 145 -13
186 -86 265 -51 55 -108 90 -192 118 -56 18 -93 21 -389 25 l-328 4 0 -661z
m622 429 c53 -15 94 -60 108 -119 23 -99 -11 -179 -93 -220 -43 -21 -66 -24
-208 -29 l-159 -5 0 192 0 191 158 0 c86 0 174 -5 194 -10z"/>
<path d="M4690 3310 l0 -660 135 0 135 0 0 223 0 222 67 68 c53 55 69 66 78
55 13 -14 118 -184 261 -420 l89 -147 163 -1 163 0 -37 58 c-21 31 -134 207
-251 390 l-213 334 83 96 c46 54 137 158 201 232 65 74 131 152 148 173 l30
37 -161 0 -160 0 -231 -296 -230 -296 0 296 0 296 -135 0 -135 0 0 -660z"/>
<path d="M5930 3310 l0 -660 135 0 135 0 0 660 0 660 -135 0 -135 0 0 -660z"/>
<path d="M6480 3310 l0 -660 128 0 128 0 -4 463 -4 462 169 -295 c93 -162 211
-370 263 -462 l94 -168 158 0 158 0 0 660 0 660 -132 0 -131 0 6 -462 c4 -254
3 -457 -2 -452 -7 8 -295 501 -469 804 l-60 105 -151 3 -151 3 0 -661z"/>
<path d="M1974 2339 c-199 -23 -325 -131 -356 -308 -23 -134 25 -261 125 -328
60 -40 129 -66 292 -109 156 -41 199 -59 229 -95 50 -59 41 -155 -19 -208 -85
-74 -259 -68 -344 12 -37 35 -70 99 -71 135 0 22 -2 22 -121 22 l-122 0 6 -57
c9 -95 43 -170 106 -233 90 -89 202 -130 361 -130 313 0 481 123 497 366 11
150 -47 244 -191 314 -44 21 -151 60 -236 86 -85 25 -166 52 -180 59 -100 52
-106 194 -10 250 28 16 53 20 120 20 75 0 91 -3 132 -28 38 -22 53 -39 75 -87
l28 -60 119 0 119 0 -6 54 c-23 227 -248 359 -553 325z"/>
<path d="M7004 2336 c-222 -42 -356 -185 -410 -436 -19 -90 -19 -334 1 -430
31 -150 123 -289 237 -357 110 -66 303 -91 446 -58 179 42 306 165 347 336 25
107 34 99 -115 99 -128 0 -130 0 -130 -22 0 -34 -44 -119 -76 -150 -86 -80
-258 -79 -344 3 -71 67 -110 194 -110 358 0 191 32 302 109 381 55 57 106 75
198 67 113 -9 189 -74 215 -184 l13 -53 127 0 128 0 0 33 c-1 88 -48 200 -115
275 -48 53 -139 107 -219 128 -76 21 -220 26 -302 10z"/>
<path d="M2760 1693 l0 -628 410 -1 410 -1 0 114 0 113 -280 0 -280 0 0 155 0
155 250 0 250 0 0 105 0 105 -250 0 -250 0 0 145 0 145 280 0 280 0 0 110 0
110 -410 0 -410 0 0 -627z"/>
<path d="M3810 1693 l0 -628 130 0 130 0 0 238 0 237 104 0 104 0 127 -240
126 -240 140 1 c76 1 139 4 139 7 0 9 -197 368 -241 438 l-37 61 44 21 c107
52 176 151 193 277 26 182 -42 335 -178 405 -89 45 -137 50 -468 50 l-313 0 0
-627z m620 398 c92 -49 106 -210 25 -287 -45 -42 -100 -54 -254 -54 l-131 0 0
180 0 180 163 0 c139 0 167 -3 197 -19z"/>
<path d="M4830 2313 c0 -3 56 -171 125 -372 69 -201 165 -481 213 -621 l87
-255 138 0 137 0 209 628 209 627 -138 0 -139 0 -12 -42 c-6 -24 -35 -129 -64
-234 -30 -105 -79 -282 -110 -395 -75 -273 -86 -311 -90 -307 -3 3 -117 390
-256 871 l-32 107 -138 0 c-77 0 -139 -3 -139 -7z"/>
<path d="M6100 1693 l0 -628 135 0 135 0 0 628 0 627 -135 0 -135 0 0 -627z"/>
<path d="M7840 1693 l0 -628 407 2 408 2 3 111 3 110 -278 0 -278 0 3 155 3
155 244 0 245 0 0 105 0 105 -244 0 -245 0 -3 141 c-2 77 -1 143 1 145 2 2
127 4 278 4 l273 0 0 110 0 110 -410 0 -410 0 0 -627z"/>
</g>
</svg>
